<svg fill="#fff" xmlns="http://www.w3.org/2000/svg" viewBox="0 0 24 24" xml:space="preserve" width="24" height="24">
  <path d="M22.108 13.523a.71.71 0 0 0-.692-.692h-1.615a.631.631 0 0 0-.646.646c0 .092 0 .231-.046.323a6.033 6.033 0 0 1-.692 1.708c-1.292 2.262-3.554 3.508-5.954 3.508-1.846 0-3.6-.738-4.892-2.031a2.437 2.437 0 0 1-.554-.646c-.138-.369.185-.554.6-.554h3.231a.71.71 0 0 0 .692-.692v-1.431a.631.631 0 0 0-.646-.646H2.446c-.323 0-.6.277-.6.6v8.4c.046.369.369.692.738.692h1.385a.71.71 0 0 0 .692-.692v-3.231c0-.415.231-.6.554-.323.138.185.277.323.462.462 2.308 2.308 5.538 3.277 8.862 2.631a9.06 9.06 0 0 0 3.231-1.338c2.4-1.569 3.923-3.969 4.338-6.6v-.092zM1.892 10.477a.71.71 0 0 0 .692.692h1.615a.631.631 0 0 0 .646-.646c0-.092 0-.231.046-.323.138-.6.369-1.154.692-1.708 1.292-2.262 3.554-3.508 5.954-3.508 1.846 0 3.6.738 4.892 2.031.231.185.415.415.554.646.138.369-.185.554-.6.554h-3.231a.71.71 0 0 0-.692.692v1.431c0 .369.277.646.646.646h8.446c.323 0 .6-.277.6-.6V1.985c-.046-.369-.369-.692-.738-.692h-1.385a.71.71 0 0 0-.692.692v3.231c0 .415-.231.6-.554.323a2.176 2.176 0 0 0-.462-.462C16.013 2.769 12.783 1.8 9.459 2.446a9.06 9.06 0 0 0-3.231 1.338c-2.4 1.569-3.923 3.969-4.338 6.6v.092z"/>
</svg>
