<svg fill="#FFF" viewBox="0 0 24 24" xml:space="preserve" width="24" height="24" xmlns="http://www.w3.org/2000/svg">
  <path d="M16.826 7.58c-.116-4.241-3.434-5.952-7.711-5.952H.821v8.569l5.304 4.776V5.888h3.084c3.294 0 3.294 4.139 0 4.139H7.171v3.954h2.038c3.294 0 3.294 4.138 0 4.138H.821v4.259h8.294c4.276 0 7.594-1.711 7.711-5.952 0-1.951-.534-3.409-1.475-4.423.941-1.013 1.475-2.471 1.475-4.422z"/>
  <path d="M15.15 1.622h-.922c.319.16.62.337.9.532a6.16 6.16 0 0 1 1.975 2.224c.479.919.738 1.987.772 3.175v8.903c-.032 1.188-.292 2.256-.772 3.175a6.16 6.16 0 0 1-1.975 2.224 7.377 7.377 0 0 1-.871.517h.87c4.154.023 8.052-2.054 8.052-6.815V8.6c.023-4.854-3.875-6.978-8.029-6.978z"/>
</svg>
