<svg fill="#FFF" width="24" height="24" viewBox="0 0 27 18" xmlns="http://www.w3.org/2000/svg">
	<path d="M26.356.051 15.81 6.765a1.21 1.21 0 0 0-.427.466l-1.608 3.128a.312.312 0 0 1-.552 0l-1.608-3.127a1.209 1.209 0 0 0-.426-.466L.643.05C.378-.118.056.163.199.436l4.372 8.322c.104.199-.044.434-.275.434H1.679c-.3 0-.423.373-.18.542l11.82 8.21a.317.317 0 0 0 .36 0l11.82-8.21c.243-.169.12-.542-.18-.542h-2.616c-.231 0-.38-.235-.275-.434l4.37-8.322c.145-.273-.178-.554-.443-.385" fill-rule="evenodd"/>
</svg>
