<svg fill="#FFF" width="24" height="24" viewBox="0 0 24 24" xmlns="http://www.w3.org/2000/svg">
  <path d="M2.99 9.358a.78.78 0 0 1-.782.766h-.426A.781.781 0 0 1 1 9.358a.78.78 0 0 1 .782-.766h.426a.78.78 0 0 1 .782.766Zm19.257-.21c1.847 3.832.142 8.43-3.909 10.24-3.908 1.742-8.598.07-10.374-3.761a7.294 7.294 0 0 1-.64-2.438H5.761a.781.781 0 0 1-.782-.766.78.78 0 0 1 .782-.766h2.274a.78.78 0 0 0 .782-.767.781.781 0 0 0-.782-.766H4.41a.781.781 0 0 1-.782-.766c0-.418.356-.766.782-.766h5.045a.781.781 0 0 0 .782-.767.78.78 0 0 0-.782-.766h-2.06c-.64 0-1.209-.487-1.209-1.184 0-.627.498-1.184 1.208-1.184h8.03c2.842.14 5.543 1.741 6.822 4.458Zm-8.98-.767c-2.248 1.011-3.233 3.616-2.201 5.819 1.032 2.202 3.69 3.168 5.937 2.157 2.247-1.012 3.232-3.617 2.2-5.82-1.032-2.202-3.69-3.168-5.937-2.156Zm3.58 1.464 1.42 2.369c.072.14.072.209 0 .348l-1.42 2.368c-.072.14-.214.14-.285.14h-2.771c-.142 0-.214-.07-.284-.14l-1.422-2.368c-.07-.14-.07-.209 0-.348l1.422-2.369c.07-.139.213-.139.284-.139h2.771c.142-.07.213 0 .284.14Z"/>
</svg>
