<svg fill="#FFF" viewBox="0 0 24 24" xml:space="preserve" width="24" height="24" xmlns="http://www.w3.org/2000/svg">
  <path d="M0 0v20.757h5.298v-6.068h3.108c5.061 0 7.637-3.666 7.637-7.36C16.042 3.664 13.496 0 8.376 0Zm5.298 4.897h3.078c3.197-.029 3.197 5.159 0 5.13H5.298Z"/>
    <path d="M15.032 0c1.943 1.494 3.079 3.672 3.412 5.976a2.47 2.47 0 0 1 .051 2.498c-.268 2.555-1.505 4.993-3.698 6.573l4.2 5.71H24v-1.984l-4.115-5.139C22.43 12.842 24 10.672 24 6.83 23.881 1.964 20.538 0 16.216 0h-1.184zm-1.836 15.959c-1.258.558-2.73.887-4.426.887h-.931v3.911h5.357V15.96z"/>
</svg>
