<svg xmlns="http://www.w3.org/2000/svg" width="24" height="24" viewBox="0 0 24 24" fill="#fff">
    <path d="M0 7h.462v.462H0zm.462 0h.462v.462H.462zm.462 0h.462v.462H.923zm.462 0h.462v.462h-.463zm6 0h.462v.462h-.462zm.462 0h.462v.462h-.462zm.462 0h.462v.462H8.31zm.462 0h.462v.462h-.462zm.462 0h.462v.462h-.462zm.462 0h.462v.462h-.462zm.462 0h.462v.462h-.462zm.462 0h.462v.462h-.462zm4.154 0h.462v.462h-.462zm.462 0h.462v.462h-.462zm.462 0h.462v.462h-.462zm.462 0h.462v.462h-.462zm.462 0h.462v.462h-.462zm.462 0h.462v.462h-.462zm.462 0h.462v.462h-.462zm.462 0h.462v.462h-.462zm.462 0h.462v.462h-.462zm.462 0h.462v.462h-.462zm.462 0h.462v.462h-.462zm.462 0h.462v.462h-.462zm.462 0h.462v.462h-.462zm.462 0h.462v.462h-.462zm.462 0h.462v.462h-.462zm.462 0h.462v.462h-.462zM0 7.462h.462v.462H0zm.462 0h.462v.462H.462zm.462 0h.462v.462H.923zm.462 0h.462v.462h-.463zm6 0h.462v.462h-.462zm.462 0h.462v.462h-.462zm.462 0h.462v.462H8.31zm.462 0h.462v.462h-.462zm.462 0h.462v.462h-.462zm.462 0h.462v.462h-.462zm.462 0h.462v.462h-.462zm.462 0h.462v.462h-.462zm4.154 0h.462v.462h-.462zm.462 0h.462v.462h-.462zm.462 0h.462v.462h-.462zm.462 0h.462v.462h-.462zm.462 0h.462v.462h-.462zm.462 0h.462v.462h-.462zm.462 0h.462v.462h-.462zm.462 0h.462v.462h-.462zm.462 0h.462v.462h-.462zm.462 0h.462v.462h-.462zm.462 0h.462v.462h-.462zm.462 0h.462v.462h-.462zm.462 0h.462v.462h-.462zm.462 0h.462v.462h-.462zm.462 0h.462v.462h-.462zm.462 0h.462v.462h-.462zM0 7.923h.462v.462H0zm.462 0h.462v.462H.462zm.462 0h.462v.462H.923zm.462 0h.462v.462h-.463zm6 0h.462v.462h-.462zm.462 0h.462v.462h-.462zm.462 0h.462v.462H8.31zm.462 0h.462v.462h-.462zm.462 0h.462v.462h-.462zm.462 0h.462v.462h-.462zm.462 0h.462v.462h-.462zm.462 0h.462v.462h-.462zm4.154 0h.462v.462h-.462zm.462 0h.462v.462h-.462zm.462 0h.462v.462h-.462zm.462 0h.462v.462h-.462zm.462 0h.462v.462h-.462zm.462 0h.462v.462h-.462zm.462 0h.462v.462h-.462zm.462 0h.462v.462h-.462zm.462 0h.462v.462h-.462zm.462 0h.462v.462h-.462zm.462 0h.462v.462h-.462zm.462 0h.462v.462h-.462zm.462 0h.462v.462h-.462zm.462 0h.462v.462h-.462zm.462 0h.462v.462h-.462zm.462 0h.462v.462h-.462zM0 8.385h.462v.462H0zm.462 0h.462v.462H.462zm.462 0h.462v.462H.923zm.462 0h.462v.462h-.463zm6 0h.462v.462h-.462zm.462 0h.462v.462h-.462zm.462 0h.462v.462H8.31zm.462 0h.462v.462h-.462zm.462 0h.462v.462h-.462zm.462 0h.462v.462h-.462zm.462 0h.462v.462h-.462zm.462 0h.462v.462h-.462zm4.154 0h.462v.462h-.462zm.462 0h.462v.462h-.462zm.462 0h.462v.462h-.462zm.462 0h.462v.462h-.462zm.462 0h.462v.462h-.462zm.462 0h.462v.462h-.462zm.462 0h.462v.462h-.462zm.462 0h.462v.462h-.462zm.462 0h.462v.462h-.462zm.462 0h.462v.462h-.462zm.462 0h.462v.462h-.462zm.462 0h.462v.462h-.462zm.462 0h.462v.462h-.462zm.462 0h.462v.462h-.462zm.462 0h.462v.462h-.462zm.462 0h.462v.462h-.462zM0 8.846h.462v.462H0zm.462 0h.462v.462H.462zm.462 0h.462v.462H.923zm.462 0h.462v.462h-.463zm6 0h.462v.462h-.462zm.462 0h.462v.462h-.462zm.462 0h.462v.462H8.31zm.462 0h.462v.462h-.462zm.462 0h.462v.462h-.462zm.462 0h.462v.462h-.462zm.462 0h.462v.462h-.462zm.462 0h.462v.462h-.462zm2.308 0h.462v.462h-.462zm.462 0h.462v.462h-.462zm.462 0h.462v.462h-.462zm.462 0h.462v.462h-.462zm.462 0h.462v.462h-.462zm.462 0h.462v.462h-.462zm.462 0h.462v.462H15.7zm.462 0h.462v.462h-.462zm4.154 0h.462v.462h-.462zm.462 0h.462v.462h-.462zm.462 0h.462v.462h-.462zm.462 0h.462v.462h-.462zm.462 0h.462v.462h-.462zm.462 0h.462v.462h-.462zm.462 0h.462v.462h-.462zm.462 0h.462v.462h-.462zM0 9.308h.462v.462H0zm.462 0h.462v.462H.462zm.462 0h.462v.462H.923zm.462 0h.462v.462h-.463zm6 0h.462v.462h-.462zm.462 0h.462v.462h-.462zm.462 0h.462v.462H8.31zm.462 0h.462v.462h-.462zm.462 0h.462v.462h-.462zm.462 0h.462v.462h-.462zm.462 0h.462v.462h-.462zm.462 0h.462v.462h-.462zm2.308 0h.462v.462h-.462zm.462 0h.462v.462h-.462zm.462 0h.462v.462h-.462zm.462 0h.462v.462h-.462zm.462 0h.462v.462h-.462zm.462 0h.462v.462h-.462zm.462 0h.462v.462H15.7zm.462 0h.462v.462h-.462zm4.154 0h.462v.462h-.462zm.462 0h.462v.462h-.462zm.462 0h.462v.462h-.462zm.462 0h.462v.462h-.462zm.462 0h.462v.462h-.462zm.462 0h.462v.462h-.462zm.462 0h.462v.462h-.462zm.462 0h.462v.462h-.462zM0 9.769h.462v.462H0zm.462 0h.462v.462H.462zm.462 0h.462v.462H.923zm.462 0h.462v.462h-.463zm6 0h.462v.462h-.462zm.462 0h.462v.462h-.462zm.462 0h.462v.462H8.31zm.462 0h.462v.462h-.462zm.462 0h.462v.462h-.462zm.462 0h.462v.462h-.462zm.462 0h.462v.462h-.462zm.462 0h.462v.462h-.462zm2.308 0h.462v.462h-.462zm.462 0h.462v.462h-.462zm.462 0h.462v.462h-.462zm.462 0h.462v.462h-.462zm.462 0h.462v.462h-.462zm.462 0h.462v.462h-.462zm.462 0h.462v.462H15.7zm.462 0h.462v.462h-.462zm4.154 0h.462v.462h-.462zm.462 0h.462v.462h-.462zm.462 0h.462v.462h-.462zm.462 0h.462v.462h-.462zm.462 0h.462v.462h-.462zm.462 0h.462v.462h-.462zm.462 0h.462v.462h-.462zm.462 0h.462v.462h-.462zM0 10.231h.462v.462H0zm.462 0h.462v.462H.462zm.462 0h.462v.462H.923zm.462 0h.462v.462h-.463zm6 0h.462v.462h-.462zm.462 0h.462v.462h-.462zm.462 0h.462v.462H8.31zm.462 0h.462v.462h-.462zm.462 0h.462v.462h-.462zm.462 0h.462v.462h-.462zm.462 0h.462v.462h-.462zm.462 0h.462v.462h-.462zm2.308 0h.462v.462h-.462zm.462 0h.462v.462h-.462zm.462 0h.462v.462h-.462zm.462 0h.462v.462h-.462zm.462 0h.462v.462h-.462zm.462 0h.462v.462h-.462zm.462 0h.462v.462H15.7zm.462 0h.462v.462h-.462zm4.154 0h.462v.462h-.462zm.462 0h.462v.462h-.462zm.462 0h.462v.462h-.462zm.462 0h.462v.462h-.462zm.462 0h.462v.462h-.462zm.462 0h.462v.462h-.462zm.462 0h.462v.462h-.462zm.462 0h.462v.462h-.462zM0 10.692h.462v.462H0zm.462 0h.462v.462H.462zm.462 0h.462v.462H.923zm.462 0h.462v.462h-.463zm6 0h.462v.462h-.462zm.462 0h.462v.462h-.462zm.462 0h.462v.462H8.31zm.462 0h.462v.462h-.462zm.462 0h.462v.462h-.462zm.462 0h.462v.462h-.462zm.462 0h.462v.462h-.462zm.462 0h.462v.462h-.462zm2.308 0h.462v.462h-.462zm.462 0h.462v.462h-.462zm.462 0h.462v.462h-.462zm.462 0h.462v.462h-.462zm.462 0h.462v.462h-.462zm.462 0h.462v.462h-.462zm.462 0h.462v.462H15.7zm.462 0h.462v.462h-.462zM0 11.154h.462v.462H0zm.462 0h.462v.462H.462zm.462 0h.462v.462H.923zm.462 0h.462v.462h-.463zm6 0h.462v.462h-.462zm.462 0h.462v.462h-.462zm.462 0h.462v.462H8.31zm.462 0h.462v.462h-.462zm.462 0h.462v.462h-.462zm.462 0h.462v.462h-.462zm.462 0h.462v.462h-.462zm.462 0h.462v.462h-.462zm2.308 0h.462v.462h-.462zm.462 0h.462v.462h-.462zm.462 0h.462v.462h-.462zm.462 0h.462v.462h-.462zm.462 0h.462v.462h-.462zm.462 0h.462v.462h-.462zm.462 0h.462v.462H15.7zm.462 0h.462v.462h-.462zM0 11.615h.462v.462H0zm.462 0h.462v.462H.462zm.462 0h.462v.462H.923zm.462 0h.462v.462h-.463zm6 0h.462v.462h-.462zm.462 0h.462v.462h-.462zm.462 0h.462v.462H8.31zm.462 0h.462v.462h-.462zm.462 0h.462v.462h-.462zm.462 0h.462v.462h-.462zm.462 0h.462v.462h-.462zm.462 0h.462v.462h-.462zm2.308 0h.462v.462h-.462zm.462 0h.462v.462h-.462zm.462 0h.462v.462h-.462zm.462 0h.462v.462h-.462zm.462 0h.462v.462h-.462zm.462 0h.462v.462h-.462zm.462 0h.462v.462H15.7zm.462 0h.462v.462h-.462zM0 12.077h.462v.462H0zm.462 0h.462v.462H.462zm.462 0h.462v.462H.923zm.462 0h.462v.462h-.463zm6 0h.462v.462h-.462zm.462 0h.462v.462h-.462zm.462 0h.462v.462H8.31zm.462 0h.462v.462h-.462zm.462 0h.462v.462h-.462zm.462 0h.462v.462h-.462zm.462 0h.462v.462h-.462zm.462 0h.462v.462h-.462zm2.308 0h.462v.462h-.462zm.462 0h.462v.462h-.462zm.462 0h.462v.462h-.462zm.462 0h.462v.462h-.462zm.462 0h.462v.462h-.462zm.462 0h.462v.462h-.462zm.462 0h.462v.462H15.7zm.462 0h.462v.462h-.462zM0 12.538h.462V13H0zm.462 0h.462V13H.462zm.462 0h.462V13H.923zm.462 0h.462V13h-.463zm6 0h.462V13h-.462zm.462 0h.462V13h-.462zm.462 0h.462V13H8.31zm.462 0h.462V13h-.462zm.462 0h.462V13h-.462zm.462 0h.462V13h-.462zm.462 0h.462V13h-.462zm.462 0h.462V13h-.462zm2.308 0h.462V13h-.462zm.462 0h.462V13h-.462zm.462 0h.462V13h-.462zm.462 0h.462V13h-.462zm.462 0h.462V13h-.462zm.462 0h.462V13h-.462zm.462 0h.462V13H15.7zm.462 0h.462V13h-.462zM0 13h.462v.462H0zm.462 0h.462v.462H.462zm.462 0h.462v.462H.923zm.462 0h.462v.462h-.463zm6 0h.462v.462h-.462zm.462 0h.462v.462h-.462zm.462 0h.462v.462H8.31zm.462 0h.462v.462h-.462zm.462 0h.462v.462h-.462zm.462 0h.462v.462h-.462zm.462 0h.462v.462h-.462zm.462 0h.462v.462h-.462zm2.308 0h.462v.462h-.462zm.462 0h.462v.462h-.462zm.462 0h.462v.462h-.462zm.462 0h.462v.462h-.462zm.462 0h.462v.462h-.462zm.462 0h.462v.462h-.462zm.462 0h.462v.462H15.7zm.462 0h.462v.462h-.462zM0 13.462h.462v.462H0zm.462 0h.462v.462H.462zm.462 0h.462v.462H.923zm.462 0h.462v.462h-.463zm6 0h.462v.462h-.462zm.462 0h.462v.462h-.462zm.462 0h.462v.462H8.31zm.462 0h.462v.462h-.462zm.462 0h.462v.462h-.462zm.462 0h.462v.462h-.462zm.462 0h.462v.462h-.462zm.462 0h.462v.462h-.462zm2.308 0h.462v.462h-.462zm.462 0h.462v.462h-.462zm.462 0h.462v.462h-.462zm.462 0h.462v.462h-.462zm.462 0h.462v.462h-.462zm.462 0h.462v.462h-.462zm.462 0h.462v.462H15.7zm.462 0h.462v.462h-.462zM0 13.923h.462v.462H0zm.462 0h.462v.462H.462zm.462 0h.462v.462H.923zm.462 0h.462v.462h-.463zm6 0h.462v.462h-.462zm.462 0h.462v.462h-.462zm.462 0h.462v.462H8.31zm.462 0h.462v.462h-.462zm.462 0h.462v.462h-.462zm.462 0h.462v.462h-.462zm.462 0h.462v.462h-.462zm.462 0h.462v.462h-.462zm2.308 0h.462v.462h-.462zm.462 0h.462v.462h-.462zm.462 0h.462v.462h-.462zm.462 0h.462v.462h-.462zm.462 0h.462v.462h-.462zm.462 0h.462v.462h-.462zm.462 0h.462v.462H15.7zm.462 0h.462v.462h-.462zm-14.316.462h.462v.462h-.462zm.462 0h.462v.462h-.462zm.462 0h.462v.462h-.463zm.462 0h.462v.462h-.463zm2.308 0h.462v.462H5.54zm.462 0h.462v.462h-.462zm.462 0h.462v.462h-.462zm.462 0h.462v.462h-.462zm.462 0h.462v.462h-.462zm.462 0h.462v.462H7.85zm.462 0h.462v.462h-.462zm.462 0h.462v.462h-.462zm4.154 0h.462v.462h-.462zm.462 0h.462v.462h-.462zm.462 0h.462v.462h-.462zm.462 0h.462v.462h-.462zm.462 0h.462v.462h-.462zm.462 0h.462v.462h-.462zm.462 0h.462v.462H15.7zm.462 0h.462v.462h-.462zm4.154 0h.462v.462h-.462zm.462 0h.462v.462h-.462zm.462 0h.462v.462h-.462zm.462 0h.462v.462h-.462zm.462 0h.462v.462h-.462zm.462 0h.462v.462h-.462zm.462 0h.462v.462h-.462zm.462 0h.462v.462h-.462zm-21.704.461h.462v.462h-.462zm.462 0h.462v.462h-.462zm.462 0h.462v.462h-.463zm.462 0h.462v.462h-.463zm2.308 0h.462v.462H5.54zm.462 0h.462v.462h-.462zm.462 0h.462v.462h-.462zm.462 0h.462v.462h-.462zm.462 0h.462v.462h-.462zm.462 0h.462v.462H7.85zm.462 0h.462v.462h-.462zm.462 0h.462v.462h-.462zm4.154 0h.462v.462h-.462zm.462 0h.462v.462h-.462zm.462 0h.462v.462h-.462zm.462 0h.462v.462h-.462zm.462 0h.462v.462h-.462zm.462 0h.462v.462h-.462zm.462 0h.462v.462H15.7zm.462 0h.462v.462h-.462zm4.154 0h.462v.462h-.462zm.462 0h.462v.462h-.462zm.462 0h.462v.462h-.462zm.462 0h.462v.462h-.462zm.462 0h.462v.462h-.462zm.462 0h.462v.462h-.462zm.462 0h.462v.462h-.462zm.462 0h.462v.462h-.462zm-21.704.462h.462v.462h-.462zm.462 0h.462v.462h-.462zm.462 0h.462v.462h-.463zm.462 0h.462v.462h-.463zm2.308 0h.462v.462H5.54zm.462 0h.462v.462h-.462zm.462 0h.462v.462h-.462zm.462 0h.462v.462h-.462zm.462 0h.462v.462h-.462zm.462 0h.462v.462H7.85zm.462 0h.462v.462h-.462zm.462 0h.462v.462h-.462zm4.154 0h.462v.462h-.462zm.462 0h.462v.462h-.462zm.462 0h.462v.462h-.462zm.462 0h.462v.462h-.462zm.462 0h.462v.462h-.462zm.462 0h.462v.462h-.462zm.462 0h.462v.462H15.7zm.462 0h.462v.462h-.462zm4.154 0h.462v.462h-.462zm.462 0h.462v.462h-.462zm.462 0h.462v.462h-.462zm.462 0h.462v.462h-.462zm.462 0h.462v.462h-.462zm.462 0h.462v.462h-.462zm.462 0h.462v.462h-.462zm.462 0h.462v.462h-.462zm-21.704.461h.462v.462h-.462zm.462 0h.462v.462h-.462zm.462 0h.462v.462h-.463zm.462 0h.462v.462h-.463zm2.308 0h.462v.462H5.54zm.462 0h.462v.462h-.462zm.462 0h.462v.462h-.462zm.462 0h.462v.462h-.462zm.462 0h.462v.462h-.462zm.462 0h.462v.462H7.85zm.462 0h.462v.462h-.462zm.462 0h.462v.462h-.462zm4.154 0h.462v.462h-.462zm.462 0h.462v.462h-.462zm.462 0h.462v.462h-.462zm.462 0h.462v.462h-.462zm.462 0h.462v.462h-.462zm.462 0h.462v.462h-.462zm.462 0h.462v.462H15.7zm.462 0h.462v.462h-.462zm4.154 0h.462v.462h-.462zm.462 0h.462v.462h-.462zm.462 0h.462v.462h-.462zm.462 0h.462v.462h-.462zm.462 0h.462v.462h-.462zm.462 0h.462v.462h-.462zm.462 0h.462v.462h-.462zm.462 0h.462v.462h-.462zm-19.858.462h.462v.462h-.462zm.462 0h.462v.462h-.462zm.462 0h.462v.462h-.462zm.462 0h.462v.462h-.462zm.462 0h.462v.462H5.54zm.462 0h.462v.462h-.462zm.462 0h.462v.462h-.462zm.462 0h.462v.462h-.462zm7.846 0h.462v.462h-.462zm.462 0h.462v.462h-.462zm.462 0h.462v.462h-.462zm.462 0h.462v.462h-.462zm.462 0h.462v.462h-.462zm.462 0h.462v.462h-.462zm.462 0h.462v.462h-.462zm.462 0h.462v.462h-.462zm.462 0h.462v.462h-.462zm.462 0h.462v.462h-.462zm.462 0h.462v.462h-.462zm.462 0h.462v.462h-.462zm.462 0h.462v.462h-.462zm.462 0h.462v.462h-.462zm.462 0h.462v.462h-.462zm.462 0h.462v.462h-.462zm-18.01.461h.462v.462h-.462zm.462 0h.462v.462h-.462zm.462 0h.462v.462h-.462zm.462 0h.462v.462h-.462zm.462 0h.462v.462H5.54zm.462 0h.462v.462h-.462zm.462 0h.462v.462h-.462zm.462 0h.462v.462h-.462zm7.846 0h.462v.462h-.462zm.462 0h.462v.462h-.462zm.462 0h.462v.462h-.462zm.462 0h.462v.462h-.462zm.462 0h.462v.462h-.462zm.462 0h.462v.462h-.462zm.462 0h.462v.462h-.462zm.462 0h.462v.462h-.462zm.462 0h.462v.462h-.462zm.462 0h.462v.462h-.462zm.462 0h.462v.462h-.462zm.462 0h.462v.462h-.462zm.462 0h.462v.462h-.462zm.462 0h.462v.462h-.462zm.462 0h.462v.462h-.462zm.462 0h.462v.462h-.462zm-18.01.462h.462v.462h-.462zm.462 0h.462v.462h-.462zm.462 0h.462v.462h-.462zm.462 0h.462v.462h-.462zm.462 0h.462v.462H5.54zm.462 0h.462v.462h-.462zm.462 0h.462v.462h-.462zm.462 0h.462v.462h-.462zm7.846 0h.462v.462h-.462zm.462 0h.462v.462h-.462zm.462 0h.462v.462h-.462zm.462 0h.462v.462h-.462zm.462 0h.462v.462h-.462zm.462 0h.462v.462h-.462zm.462 0h.462v.462h-.462zm.462 0h.462v.462h-.462zm.462 0h.462v.462h-.462zm.462 0h.462v.462h-.462zm.462 0h.462v.462h-.462zm.462 0h.462v.462h-.462zm.462 0h.462v.462h-.462zm.462 0h.462v.462h-.462zm.462 0h.462v.462h-.462zm.462 0h.462v.462h-.462zm-18.01.461h.462v.462h-.462zm.462 0h.462v.462h-.462zm.462 0h.462v.462h-.462zm.462 0h.462v.462h-.462zm.462 0h.462v.462H5.54zm.462 0h.462v.462h-.462zm.462 0h.462v.462h-.462zm.462 0h.462v.462h-.462zm7.846 0h.462v.462h-.462zm.462 0h.462v.462h-.462zm.462 0h.462v.462h-.462zm.462 0h.462v.462h-.462zm.462 0h.462v.462h-.462zm.462 0h.462v.462h-.462zm.462 0h.462v.462h-.462zm.462 0h.462v.462h-.462zm.462 0h.462v.462h-.462zm.462 0h.462v.462h-.462zm.462 0h.462v.462h-.462zm.462 0h.462v.462h-.462zm.462 0h.462v.462h-.462zm.462 0h.462v.462h-.462zm.462 0h.462v.462h-.462zm.462 0h.462v.462h-.462z"/>
</svg>
