<svg xmlns="http://www.w3.org/2000/svg" width="24" height="24" viewBox="0 0 24 24" fill="#fff">
    <path d="M0 0h.462v.462H0zm.462 0h.462v.462H.462zm.462 0h.462v.462H.923zm.462 0h.462v.462h-.463zm6 0h.462v.462h-.462zm.462 0h.462v.462h-.462zm.462 0h.462v.462H8.31zm.462 0h.462v.462h-.462zm.462 0h.462v.462h-.462zm.462 0h.462v.462h-.462zm.462 0h.462v.462h-.462zm.462 0h.462v.462h-.462zm4.154 0h.462v.462h-.462zm.462 0h.462v.462h-.462zm.462 0h.462v.462h-.462zm.462 0h.462v.462h-.462zm.462 0h.462v.462h-.462zm.462 0h.462v.462h-.462zm.462 0h.462v.462h-.462zm.462 0h.462v.462h-.462zm.462 0h.462v.462h-.462zm.462 0h.462v.462h-.462zm.462 0h.462v.462h-.462zm.462 0h.462v.462h-.462zm.462 0h.462v.462h-.462zm.462 0h.462v.462h-.462zm.462 0h.462v.462h-.462zm.462 0h.462v.462h-.462zM0 .462h.462v.462H0zm.462 0h.462v.462H.462zm.462 0h.462v.462H.923zm.462 0h.462v.462h-.463zm6 0h.462v.462h-.462zm.462 0h.462v.462h-.462zm.462 0h.462v.462H8.31zm.462 0h.462v.462h-.462zm.462 0h.462v.462h-.462zm.462 0h.462v.462h-.462zm.462 0h.462v.462h-.462zm.462 0h.462v.462h-.462zm4.154 0h.462v.462h-.462zm.462 0h.462v.462h-.462zm.462 0h.462v.462h-.462zm.462 0h.462v.462h-.462zm.462 0h.462v.462h-.462zm.462 0h.462v.462h-.462zm.462 0h.462v.462h-.462zm.462 0h.462v.462h-.462zm.462 0h.462v.462h-.462zm.462 0h.462v.462h-.462zm.462 0h.462v.462h-.462zm.462 0h.462v.462h-.462zm.462 0h.462v.462h-.462zm.462 0h.462v.462h-.462zm.462 0h.462v.462h-.462zm.462 0h.462v.462h-.462zM0 .923h.462v.462H0zm.462 0h.462v.462H.462zm.462 0h.462v.462H.923zm.462 0h.462v.462h-.463zm6 0h.462v.462h-.462zm.462 0h.462v.462h-.462zm.462 0h.462v.462H8.31zm.462 0h.462v.462h-.462zm.462 0h.462v.462h-.462zm.462 0h.462v.462h-.462zm.462 0h.462v.462h-.462zm.462 0h.462v.462h-.462zm4.154 0h.462v.462h-.462zm.462 0h.462v.462h-.462zm.462 0h.462v.462h-.462zm.462 0h.462v.462h-.462zm.462 0h.462v.462h-.462zm.462 0h.462v.462h-.462zm.462 0h.462v.462h-.462zm.462 0h.462v.462h-.462zm.462 0h.462v.462h-.462zm.462 0h.462v.462h-.462zm.462 0h.462v.462h-.462zm.462 0h.462v.462h-.462zm.462 0h.462v.462h-.462zm.462 0h.462v.462h-.462zm.462 0h.462v.462h-.462zm.462 0h.462v.462h-.462zM0 1.385h.462v.462H0zm.462 0h.462v.462H.462zm.462 0h.462v.462H.923zm.462 0h.462v.462h-.463zm6 0h.462v.462h-.462zm.462 0h.462v.462h-.462zm.462 0h.462v.462H8.31zm.462 0h.462v.462h-.462zm.462 0h.462v.462h-.462zm.462 0h.462v.462h-.462zm.462 0h.462v.462h-.462zm.462 0h.462v.462h-.462zm4.154 0h.462v.462h-.462zm.462 0h.462v.462h-.462zm.462 0h.462v.462h-.462zm.462 0h.462v.462h-.462zm.462 0h.462v.462h-.462zm.462 0h.462v.462h-.462zm.462 0h.462v.462h-.462zm.462 0h.462v.462h-.462zm.462 0h.462v.462h-.462zm.462 0h.462v.462h-.462zm.462 0h.462v.462h-.462zm.462 0h.462v.462h-.462zm.462 0h.462v.462h-.462zm.462 0h.462v.462h-.462zm.462 0h.462v.462h-.462zm.462 0h.462v.462h-.462zM0 1.846h.462v.462H0zm.462 0h.462v.462H.462zm.462 0h.462v.462H.923zm.462 0h.462v.462h-.463zm6 0h.462v.462h-.462zm.462 0h.462v.462h-.462zm.462 0h.462v.462H8.31zm.462 0h.462v.462h-.462zm.462 0h.462v.462h-.462zm.462 0h.462v.462h-.462zm.462 0h.462v.462h-.462zm.462 0h.462v.462h-.462zm2.308 0h.462v.462h-.462zm.462 0h.462v.462h-.462zm.462 0h.462v.462h-.462zm.462 0h.462v.462h-.462zm.462 0h.462v.462h-.462zm.462 0h.462v.462h-.462zm.462 0h.462v.462H15.7zm.462 0h.462v.462h-.462zm4.154 0h.462v.462h-.462zm.462 0h.462v.462h-.462zm.462 0h.462v.462h-.462zm.462 0h.462v.462h-.462zm.462 0h.462v.462h-.462zm.462 0h.462v.462h-.462zm.462 0h.462v.462h-.462zm.462 0h.462v.462h-.462zM0 2.308h.462v.462H0zm.462 0h.462v.462H.462zm.462 0h.462v.462H.923zm.462 0h.462v.462h-.463zm6 0h.462v.462h-.462zm.462 0h.462v.462h-.462zm.462 0h.462v.462H8.31zm.462 0h.462v.462h-.462zm.462 0h.462v.462h-.462zm.462 0h.462v.462h-.462zm.462 0h.462v.462h-.462zm.462 0h.462v.462h-.462zm2.308 0h.462v.462h-.462zm.462 0h.462v.462h-.462zm.462 0h.462v.462h-.462zm.462 0h.462v.462h-.462zm.462 0h.462v.462h-.462zm.462 0h.462v.462h-.462zm.462 0h.462v.462H15.7zm.462 0h.462v.462h-.462zm4.154 0h.462v.462h-.462zm.462 0h.462v.462h-.462zm.462 0h.462v.462h-.462zm.462 0h.462v.462h-.462zm.462 0h.462v.462h-.462zm.462 0h.462v.462h-.462zm.462 0h.462v.462h-.462zm.462 0h.462v.462h-.462zM0 2.769h.462v.462H0zm.462 0h.462v.462H.462zm.462 0h.462v.462H.923zm.462 0h.462v.462h-.463zm6 0h.462v.462h-.462zm.462 0h.462v.462h-.462zm.462 0h.462v.462H8.31zm.462 0h.462v.462h-.462zm.462 0h.462v.462h-.462zm.462 0h.462v.462h-.462zm.462 0h.462v.462h-.462zm.462 0h.462v.462h-.462zm2.308 0h.462v.462h-.462zm.462 0h.462v.462h-.462zm.462 0h.462v.462h-.462zm.462 0h.462v.462h-.462zm.462 0h.462v.462h-.462zm.462 0h.462v.462h-.462zm.462 0h.462v.462H15.7zm.462 0h.462v.462h-.462zm4.154 0h.462v.462h-.462zm.462 0h.462v.462h-.462zm.462 0h.462v.462h-.462zm.462 0h.462v.462h-.462zm.462 0h.462v.462h-.462zm.462 0h.462v.462h-.462zm.462 0h.462v.462h-.462zm.462 0h.462v.462h-.462zM0 3.231h.462v.462H0zm.462 0h.462v.462H.462zm.462 0h.462v.462H.923zm.462 0h.462v.462h-.463zm6 0h.462v.462h-.462zm.462 0h.462v.462h-.462zm.462 0h.462v.462H8.31zm.462 0h.462v.462h-.462zm.462 0h.462v.462h-.462zm.462 0h.462v.462h-.462zm.462 0h.462v.462h-.462zm.462 0h.462v.462h-.462zm2.308 0h.462v.462h-.462zm.462 0h.462v.462h-.462zm.462 0h.462v.462h-.462zm.462 0h.462v.462h-.462zm.462 0h.462v.462h-.462zm.462 0h.462v.462h-.462zm.462 0h.462v.462H15.7zm.462 0h.462v.462h-.462zm4.154 0h.462v.462h-.462zm.462 0h.462v.462h-.462zm.462 0h.462v.462h-.462zm.462 0h.462v.462h-.462zm.462 0h.462v.462h-.462zm.462 0h.462v.462h-.462zm.462 0h.462v.462h-.462zm.462 0h.462v.462h-.462zM0 3.692h.462v.462H0zm.462 0h.462v.462H.462zm.462 0h.462v.462H.923zm.462 0h.462v.462h-.463zm6 0h.462v.462h-.462zm.462 0h.462v.462h-.462zm.462 0h.462v.462H8.31zm.462 0h.462v.462h-.462zm.462 0h.462v.462h-.462zm.462 0h.462v.462h-.462zm.462 0h.462v.462h-.462zm.462 0h.462v.462h-.462zm2.308 0h.462v.462h-.462zm.462 0h.462v.462h-.462zm.462 0h.462v.462h-.462zm.462 0h.462v.462h-.462zm.462 0h.462v.462h-.462zm.462 0h.462v.462h-.462zm.462 0h.462v.462H15.7zm.462 0h.462v.462h-.462zM0 4.154h.462v.462H0zm.462 0h.462v.462H.462zm.462 0h.462v.462H.923zm.462 0h.462v.462h-.463zm6 0h.462v.462h-.462zm.462 0h.462v.462h-.462zm.462 0h.462v.462H8.31zm.462 0h.462v.462h-.462zm.462 0h.462v.462h-.462zm.462 0h.462v.462h-.462zm.462 0h.462v.462h-.462zm.462 0h.462v.462h-.462zm2.308 0h.462v.462h-.462zm.462 0h.462v.462h-.462zm.462 0h.462v.462h-.462zm.462 0h.462v.462h-.462zm.462 0h.462v.462h-.462zm.462 0h.462v.462h-.462zm.462 0h.462v.462H15.7zm.462 0h.462v.462h-.462zM0 4.615h.462v.462H0zm.462 0h.462v.462H.462zm.462 0h.462v.462H.923zm.462 0h.462v.462h-.463zm6 0h.462v.462h-.462zm.462 0h.462v.462h-.462zm.462 0h.462v.462H8.31zm.462 0h.462v.462h-.462zm.462 0h.462v.462h-.462zm.462 0h.462v.462h-.462zm.462 0h.462v.462h-.462zm.462 0h.462v.462h-.462zm2.308 0h.462v.462h-.462zm.462 0h.462v.462h-.462zm.462 0h.462v.462h-.462zm.462 0h.462v.462h-.462zm.462 0h.462v.462h-.462zm.462 0h.462v.462h-.462zm.462 0h.462v.462H15.7zm.462 0h.462v.462h-.462zM0 5.077h.462v.462H0zm.462 0h.462v.462H.462zm.462 0h.462v.462H.923zm.462 0h.462v.462h-.463zm6 0h.462v.462h-.462zm.462 0h.462v.462h-.462zm.462 0h.462v.462H8.31zm.462 0h.462v.462h-.462zm.462 0h.462v.462h-.462zm.462 0h.462v.462h-.462zm.462 0h.462v.462h-.462zm.462 0h.462v.462h-.462zm2.308 0h.462v.462h-.462zm.462 0h.462v.462h-.462zm.462 0h.462v.462h-.462zm.462 0h.462v.462h-.462zm.462 0h.462v.462h-.462zm.462 0h.462v.462h-.462zm.462 0h.462v.462H15.7zm.462 0h.462v.462h-.462zM0 5.538h.462V6H0zm.462 0h.462V6H.462zm.462 0h.462V6H.923zm.462 0h.462V6h-.463zm6 0h.462V6h-.462zm.462 0h.462V6h-.462zm.462 0h.462V6H8.31zm.462 0h.462V6h-.462zm.462 0h.462V6h-.462zm.462 0h.462V6h-.462zm.462 0h.462V6h-.462zm.462 0h.462V6h-.462zm2.308 0h.462V6h-.462zm.462 0h.462V6h-.462zm.462 0h.462V6h-.462zm.462 0h.462V6h-.462zm.462 0h.462V6h-.462zm.462 0h.462V6h-.462zm.462 0h.462V6H15.7zm.462 0h.462V6h-.462zM0 6h.462v.462H0zm.462 0h.462v.462H.462zm.462 0h.462v.462H.923zm.462 0h.462v.462h-.463zm6 0h.462v.462h-.462zm.462 0h.462v.462h-.462zm.462 0h.462v.462H8.31zm.462 0h.462v.462h-.462zm.462 0h.462v.462h-.462zm.462 0h.462v.462h-.462zm.462 0h.462v.462h-.462zm.462 0h.462v.462h-.462zm2.308 0h.462v.462h-.462zm.462 0h.462v.462h-.462zm.462 0h.462v.462h-.462zm.462 0h.462v.462h-.462zm.462 0h.462v.462h-.462zm.462 0h.462v.462h-.462zm.462 0h.462v.462H15.7zm.462 0h.462v.462h-.462zM0 6.462h.462v.462H0zm.462 0h.462v.462H.462zm.462 0h.462v.462H.923zm.462 0h.462v.462h-.463zm6 0h.462v.462h-.462zm.462 0h.462v.462h-.462zm.462 0h.462v.462H8.31zm.462 0h.462v.462h-.462zm.462 0h.462v.462h-.462zm.462 0h.462v.462h-.462zm.462 0h.462v.462h-.462zm.462 0h.462v.462h-.462zm2.308 0h.462v.462h-.462zm.462 0h.462v.462h-.462zm.462 0h.462v.462h-.462zm.462 0h.462v.462h-.462zm.462 0h.462v.462h-.462zm.462 0h.462v.462h-.462zm.462 0h.462v.462H15.7zm.462 0h.462v.462h-.462zM0 6.923h.462v.462H0zm.462 0h.462v.462H.462zm.462 0h.462v.462H.923zm.462 0h.462v.462h-.463zm6 0h.462v.462h-.462zm.462 0h.462v.462h-.462zm.462 0h.462v.462H8.31zm.462 0h.462v.462h-.462zm.462 0h.462v.462h-.462zm.462 0h.462v.462h-.462zm.462 0h.462v.462h-.462zm.462 0h.462v.462h-.462zm2.308 0h.462v.462h-.462zm.462 0h.462v.462h-.462zm.462 0h.462v.462h-.462zm.462 0h.462v.462h-.462zm.462 0h.462v.462h-.462zm.462 0h.462v.462h-.462zm.462 0h.462v.462H15.7zm.462 0h.462v.462h-.462zm-14.316.462h.462v.462h-.462zm.462 0h.462v.462h-.462zm.462 0h.462v.462h-.463zm.462 0h.462v.462h-.463zm2.308 0h.462v.462H5.54zm.462 0h.462v.462h-.462zm.462 0h.462v.462h-.462zm.462 0h.462v.462h-.462zm.462 0h.462v.462h-.462zm.462 0h.462v.462H7.85zm.462 0h.462v.462h-.462zm.462 0h.462v.462h-.462zm4.154 0h.462v.462h-.462zm.462 0h.462v.462h-.462zm.462 0h.462v.462h-.462zm.462 0h.462v.462h-.462zm.462 0h.462v.462h-.462zm.462 0h.462v.462h-.462zm.462 0h.462v.462H15.7zm.462 0h.462v.462h-.462zm4.154 0h.462v.462h-.462zm.462 0h.462v.462h-.462zm.462 0h.462v.462h-.462zm.462 0h.462v.462h-.462zm.462 0h.462v.462h-.462zm.462 0h.462v.462h-.462zm.462 0h.462v.462h-.462zm.462 0h.462v.462h-.462zm-21.704.461h.462v.462h-.462zm.462 0h.462v.462h-.462zm.462 0h.462v.462h-.463zm.462 0h.462v.462h-.463zm2.308 0h.462v.462H5.54zm.462 0h.462v.462h-.462zm.462 0h.462v.462h-.462zm.462 0h.462v.462h-.462zm.462 0h.462v.462h-.462zm.462 0h.462v.462H7.85zm.462 0h.462v.462h-.462zm.462 0h.462v.462h-.462zm4.154 0h.462v.462h-.462zm.462 0h.462v.462h-.462zm.462 0h.462v.462h-.462zm.462 0h.462v.462h-.462zm.462 0h.462v.462h-.462zm.462 0h.462v.462h-.462zm.462 0h.462v.462H15.7zm.462 0h.462v.462h-.462zm4.154 0h.462v.462h-.462zm.462 0h.462v.462h-.462zm.462 0h.462v.462h-.462zm.462 0h.462v.462h-.462zm.462 0h.462v.462h-.462zm.462 0h.462v.462h-.462zm.462 0h.462v.462h-.462zm.462 0h.462v.462h-.462zm-21.704.462h.462v.462h-.462zm.462 0h.462v.462h-.462zm.462 0h.462v.462h-.463zm.462 0h.462v.462h-.463zm2.308 0h.462v.462H5.54zm.462 0h.462v.462h-.462zm.462 0h.462v.462h-.462zm.462 0h.462v.462h-.462zm.462 0h.462v.462h-.462zm.462 0h.462v.462H7.85zm.462 0h.462v.462h-.462zm.462 0h.462v.462h-.462zm4.154 0h.462v.462h-.462zm.462 0h.462v.462h-.462zm.462 0h.462v.462h-.462zm.462 0h.462v.462h-.462zm.462 0h.462v.462h-.462zm.462 0h.462v.462h-.462zm.462 0h.462v.462H15.7zm.462 0h.462v.462h-.462zm4.154 0h.462v.462h-.462zm.462 0h.462v.462h-.462zm.462 0h.462v.462h-.462zm.462 0h.462v.462h-.462zm.462 0h.462v.462h-.462zm.462 0h.462v.462h-.462zm.462 0h.462v.462h-.462zm.462 0h.462v.462h-.462zm-21.704.461h.462v.462h-.462zm.462 0h.462v.462h-.462zm.462 0h.462v.462h-.463zm.462 0h.462v.462h-.463zm2.308 0h.462v.462H5.54zm.462 0h.462v.462h-.462zm.462 0h.462v.462h-.462zm.462 0h.462v.462h-.462zm.462 0h.462v.462h-.462zm.462 0h.462v.462H7.85zm.462 0h.462v.462h-.462zm.462 0h.462v.462h-.462zm4.154 0h.462v.462h-.462zm.462 0h.462v.462h-.462zm.462 0h.462v.462h-.462zm.462 0h.462v.462h-.462zm.462 0h.462v.462h-.462zm.462 0h.462v.462h-.462zm.462 0h.462v.462H15.7zm.462 0h.462v.462h-.462zm4.154 0h.462v.462h-.462zm.462 0h.462v.462h-.462zm.462 0h.462v.462h-.462zm.462 0h.462v.462h-.462zm.462 0h.462v.462h-.462zm.462 0h.462v.462h-.462zm.462 0h.462v.462h-.462zm.462 0h.462v.462h-.462zm-19.858.462h.462v.462h-.462zm.462 0h.462v.462h-.462zm.462 0h.462v.462h-.462zm.462 0h.462v.462h-.462zm.462 0h.462v.462H5.54zm.462 0h.462v.462h-.462zm.462 0h.462v.462h-.462zm.462 0h.462v.462h-.462zm7.846 0h.462v.462h-.462zm.462 0h.462v.462h-.462zm.462 0h.462v.462h-.462zm.462 0h.462v.462h-.462zm.462 0h.462v.462h-.462zm.462 0h.462v.462h-.462zm.462 0h.462v.462h-.462zm.462 0h.462v.462h-.462zm.462 0h.462v.462h-.462zm.462 0h.462v.462h-.462zm.462 0h.462v.462h-.462zm.462 0h.462v.462h-.462zm.462 0h.462v.462h-.462zm.462 0h.462v.462h-.462zm.462 0h.462v.462h-.462zm.462 0h.462v.462h-.462zm-18.01.461h.462v.462h-.462zm.462 0h.462v.462h-.462zm.462 0h.462v.462h-.462zm.462 0h.462v.462h-.462zm.462 0h.462v.462H5.54zm.462 0h.462v.462h-.462zm.462 0h.462v.462h-.462zm.462 0h.462v.462h-.462zm7.846 0h.462v.462h-.462zm.462 0h.462v.462h-.462zm.462 0h.462v.462h-.462zm.462 0h.462v.462h-.462zm.462 0h.462v.462h-.462zm.462 0h.462v.462h-.462zm.462 0h.462v.462h-.462zm.462 0h.462v.462h-.462zm.462 0h.462v.462h-.462zm.462 0h.462v.462h-.462zm.462 0h.462v.462h-.462zm.462 0h.462v.462h-.462zm.462 0h.462v.462h-.462zm.462 0h.462v.462h-.462zm.462 0h.462v.462h-.462zm.462 0h.462v.462h-.462zm-18.01.462h.462v.462h-.462zm.462 0h.462v.462h-.462zm.462 0h.462v.462h-.462zm.462 0h.462v.462h-.462zm.462 0h.462v.462H5.54zm.462 0h.462v.462h-.462zm.462 0h.462v.462h-.462zm.462 0h.462v.462h-.462zm7.846 0h.462v.462h-.462zm.462 0h.462v.462h-.462zm.462 0h.462v.462h-.462zm.462 0h.462v.462h-.462zm.462 0h.462v.462h-.462zm.462 0h.462v.462h-.462zm.462 0h.462v.462h-.462zm.462 0h.462v.462h-.462zm.462 0h.462v.462h-.462zm.462 0h.462v.462h-.462zm.462 0h.462v.462h-.462zm.462 0h.462v.462h-.462zm.462 0h.462v.462h-.462zm.462 0h.462v.462h-.462zm.462 0h.462v.462h-.462zm.462 0h.462v.462h-.462zm-18.01.461h.462v.462h-.462zm.462 0h.462v.462h-.462zm.462 0h.462v.462h-.462zm.462 0h.462v.462h-.462zm.462 0h.462v.462H5.54zm.462 0h.462v.462h-.462zm.462 0h.462v.462h-.462zm.462 0h.462v.462h-.462zm7.846 0h.462v.462h-.462zm.462 0h.462v.462h-.462zm.462 0h.462v.462h-.462zm.462 0h.462v.462h-.462zm.462 0h.462v.462h-.462zm.462 0h.462v.462h-.462zm.462 0h.462v.462h-.462zm.462 0h.462v.462h-.462zm.462 0h.462v.462h-.462zm.462 0h.462v.462h-.462zm.462 0h.462v.462h-.462zm.462 0h.462v.462h-.462zm.462 0h.462v.462h-.462zm.462 0h.462v.462h-.462zm.462 0h.462v.462h-.462zm.462 0h.462v.462h-.462z"/>
</svg>
